<svg width="1600" height="1600" viewBox="0 0 1600 1600" fill="none" xmlns="http://www.w3.org/2000/svg">
  <rect width="1600" height="1600" fill="#0F1113"/>
  <circle cx="300" cy="280" r="260" fill="#C8A96B" fill-opacity="0.08"/>
  <circle cx="1260" cy="320" r="300" fill="#E6D3A3" fill-opacity="0.05"/>
  <circle cx="1080" cy="1240" r="360" fill="#8A6F3E" fill-opacity="0.10"/>
  <path d="M0 1020C200 940 360 980 520 1020C690 1062 820 1030 960 960C1110 884 1290 850 1600 960V1600H0V1020Z" fill="#F4EFE6" fill-opacity="0.05"/>
  <path d="M120 1180C250 1120 390 1128 530 1176C680 1230 800 1218 940 1150C1080 1082 1230 1074 1420 1146" stroke="#C8A96B" stroke-opacity="0.12" stroke-width="10" stroke-linecap="round"/>
  <g opacity="0.16" stroke="#E6D3A3" stroke-width="8" stroke-linecap="round">
    <path d="M520 260c82-44 176-30 236 30"/>
    <path d="M940 520c76-42 166-30 224 28"/>
    <path d="M1190 900c64-36 140-26 188 18"/>
  </g>
</svg>
