<svg width="1200" height="800" viewBox="0 0 1200 800" fill="none" xmlns="http://www.w3.org/2000/svg">
  <rect width="1200" height="800" fill="#FFF8F1"/>
  <path d="M0 120C160 50 290 60 410 100C530 140 610 120 720 90C870 48 1030 40 1200 120V800H0V120Z" fill="#E7C9A8" fill-opacity="0.3"/>
  <circle cx="910" cy="170" r="150" fill="#8B5E3C" fill-opacity="0.1"/>
  <circle cx="260" cy="610" r="170" fill="#DDB48A" fill-opacity="0.18"/>
  <g opacity="0.34" stroke="#6B3F24" stroke-width="6" stroke-linecap="round">
    <path d="M150 220h220"/>
    <path d="M150 248h160"/>
    <path d="M790 600h180"/>
    <path d="M790 632h120"/>
  </g>
  <rect x="360" y="290" width="480" height="220" rx="36" fill="#FFFFFF" fill-opacity="0.56" stroke="#D8C2AF" stroke-width="4"/>
  <path d="M430 408c64-74 110-58 160-18 48 38 94 56 168-10 48-44 92-52 142-22" stroke="#B6734E" stroke-width="10" stroke-linecap="round"/>
</svg>
